<svg width="37" height="38" viewBox="0 0 37 38" fill="none" xmlns="http://www.w3.org/2000/svg">
<path d="M23.125 3.58331C17.9185 3.5855 13.4564 7.30585 12.5179 12.4271C16.9995 9.97471 22.6205 11.6197 25.0729 16.1012C26.5869 18.8679 26.5869 22.2153 25.0729 24.982C30.9332 23.9085 34.8137 18.2875 33.7402 12.4272C32.8014 7.30275 28.3347 3.58134 23.125 3.58331Z" fill="#FCE0EF"/>
<path d="M10.7917 34.4167C15.0489 34.4167 18.5 30.9655 18.5 26.7083C18.5 22.4511 15.0489 19 10.7917 19C6.53451 19 3.08337 22.4511 3.08337 26.7083C3.08337 30.9655 6.53451 34.4167 10.7917 34.4167Z" fill="#ED017F"/>
<path d="M16.9584 11.2917C12.2048 11.2922 8.22545 14.8955 7.75464 19.6257C11.664 17.946 16.1948 19.7536 17.8744 23.6629C18.7087 25.6046 18.7087 27.8037 17.8744 29.7454C22.9577 29.24 26.6689 24.7094 26.1634 19.6261C25.693 14.8951 21.7127 11.2913 16.9584 11.2917Z" fill="#F899CC"/>
</svg>
