<svg width="38" height="38" viewBox="0 0 38 38" fill="none" xmlns="http://www.w3.org/2000/svg">
<path d="M28.0105 23.0421L24.2704 26.481C22.3472 28.1575 20.0878 29.4032 17.6436 30.1346L18.6359 34.7645C18.6866 35.0009 18.7922 35.222 18.9441 35.4101C19.0961 35.5982 19.2901 35.7479 19.5105 35.8472C19.731 35.9465 19.9717 35.9925 20.2132 35.9816C20.4548 35.9707 20.6904 35.9032 20.901 35.7845L26.9216 32.3887C27.769 31.8739 28.4309 31.1031 28.8119 30.1877C29.1929 29.2723 29.2733 28.2596 29.0414 27.2955L28.0105 23.0421ZM11.8677 14.0295L15.0878 10.2064L11.0721 9.23745C10.0958 8.89702 9.02931 8.92138 8.0696 9.30603C7.10989 9.69067 6.32179 10.4096 5.85088 11.3301L2.45892 17.3424C2.34007 17.553 2.27243 17.7886 2.26147 18.0302C2.25051 18.2718 2.29654 18.5125 2.39583 18.733C2.49513 18.9535 2.6449 19.1475 2.83305 19.2994C3.0212 19.4513 3.24245 19.5569 3.47892 19.6074L8.21607 20.6229C9.00142 18.2122 10.2409 15.9742 11.8677 14.0295ZM26.4644 14.0918C26.9218 14.0918 27.3689 13.9561 27.7492 13.702C28.1295 13.4479 28.4259 13.0868 28.6009 12.6642C28.7759 12.2417 28.8217 11.7767 28.7325 11.3281C28.6432 10.8795 28.423 10.4675 28.0996 10.1441C27.7762 9.82066 27.3641 9.60042 26.9156 9.51119C26.467 9.42196 26.002 9.46776 25.5795 9.64279C25.1569 9.81781 24.7957 10.1142 24.5416 10.4945C24.2875 10.8748 24.1519 11.3219 24.1519 11.7793C24.1521 12.3925 24.3958 12.9806 24.8295 13.4142C25.2631 13.8478 25.8512 14.0915 26.4644 14.0918Z" fill="#ED017F"/>
<path d="M35.5099 3.67891C35.4403 3.41486 35.3019 3.17399 35.1089 2.98091C34.9158 2.78782 34.6749 2.64944 34.4109 2.57987C31.2483 1.75781 27.9179 1.84596 24.8033 2.83417C21.6887 3.82239 18.9167 5.67045 16.8066 8.16543L11.8677 14.0295C9.40046 16.9723 7.83527 20.5648 7.36018 24.3755C7.32971 24.6097 7.35343 24.8478 7.42952 25.0713C7.50561 25.2949 7.63203 25.498 7.79903 25.665L12.5784 30.4443C12.7214 30.5875 12.8914 30.7011 13.0784 30.7786C13.2654 30.8561 13.4659 30.896 13.6683 30.896C13.7127 30.896 13.7571 30.8938 13.8023 30.89C17.6715 30.5703 21.3382 29.0259 24.2702 26.481L29.9175 21.2885C32.4213 19.1839 34.2761 16.4117 35.2661 13.2943C36.2562 10.1769 36.3407 6.84247 35.5099 3.67891ZM26.4644 14.0917C26.007 14.0917 25.5599 13.956 25.1796 13.7019C24.7993 13.4478 24.5029 13.0867 24.3279 12.6641C24.1529 12.2416 24.1071 11.7766 24.1963 11.328C24.2855 10.8794 24.5058 10.4674 24.8292 10.144C25.1526 9.82058 25.5646 9.60033 26.0132 9.5111C26.4618 9.42188 26.9268 9.46767 27.3493 9.6427C27.7719 9.81773 28.133 10.1141 28.3871 10.4944C28.6412 10.8747 28.7769 11.3218 28.7769 11.7792C28.7766 12.3924 28.5329 12.9805 28.0993 13.4141C27.6657 13.8477 27.0776 14.0914 26.4644 14.0917Z" fill="#F899CC"/>
</svg>
